<svg width="1207" height="628" viewBox="0 0 1207 628" fill="none" xmlns="http://www.w3.org/2000/svg">
<path d="M808.773 3.3916L808.969 3.39941C809.94 3.47212 810.797 4.08247 811.179 4.99023C811.561 5.89807 811.398 6.93745 810.771 7.68262L810.64 7.82715L208.135 623.825C207.647 624.324 206.98 624.606 206.283 624.61C205.813 624.613 205.356 624.486 204.956 624.253H6C4.55844 624.253 3.38965 623.084 3.38965 621.643V6.01758L3.40332 5.75C3.53719 4.43402 4.64869 3.40723 6 3.40723H206.149L206.416 3.4209C207.732 3.55446 208.76 4.66604 208.76 6.01758V332.786L537.42 4.1543L537.611 3.98047C538.076 3.59998 538.66 3.3897 539.266 3.38965L808.773 3.3916ZM580.121 358.091C580.83 358.105 581.503 358.406 581.985 358.927L823.615 619.869C824.32 620.63 824.507 621.737 824.092 622.688C823.676 623.638 822.738 624.253 821.7 624.253L552.192 624.255C551.478 624.255 550.794 623.962 550.302 623.444L436.652 504.015C435.676 502.989 435.697 501.371 436.698 500.37L578.225 358.854L578.422 358.678C578.899 358.289 579.5 358.079 580.121 358.091ZM1201.46 462.407C1202.9 462.407 1204.07 463.576 1204.07 465.018V621.643C1204.07 623.084 1202.9 624.253 1201.46 624.253H920.813C920.118 624.253 919.451 623.976 918.961 623.482L763.41 466.856C762.668 466.109 762.448 464.988 762.853 464.015C763.258 463.042 764.209 462.407 765.263 462.407H1201.46ZM1200.37 231.819C1201.81 231.82 1202.98 232.988 1202.98 234.43V391.056C1202.98 392.497 1201.81 393.665 1200.37 393.665H713.05C712.358 393.665 711.694 393.391 711.204 392.901L632.885 314.588C632.395 314.098 632.12 313.434 632.12 312.742C632.12 312.05 632.395 311.386 632.885 310.896L711.204 232.584L711.396 232.41C711.86 232.03 712.444 231.819 713.05 231.819H1200.37ZM1200.37 3.40723L1200.64 3.4209C1201.95 3.5546 1202.98 4.66615 1202.98 6.01758V162.643C1202.98 164.084 1201.81 165.253 1200.37 165.253H780.491C779.437 165.253 778.486 164.619 778.081 163.646C777.676 162.672 777.897 161.551 778.64 160.804L934.19 4.17773L934.382 4.00293C934.847 3.61939 935.434 3.40725 936.042 3.40723H1200.37Z" fill="#EF8A76" stroke="#EF8A76" stroke-width="5.22034" stroke-linejoin="round"/>
</svg>
