<svg width="1225" height="646" viewBox="0 0 1225 646" fill="none" xmlns="http://www.w3.org/2000/svg">
<path d="M817.298 7.80469L817.568 7.80957C820.356 7.91405 822.844 9.62465 823.932 12.2109C825.055 14.8807 824.468 17.9634 822.442 20.0342L220.295 635.719C218.951 637.093 217.112 637.873 215.189 637.884C214.41 637.888 213.644 637.764 212.917 637.526H15C11.025 637.526 7.80273 634.304 7.80273 630.329V15.0176L7.8125 14.6465C8.0055 10.8439 11.1494 7.82031 15 7.82031H215.031L215.401 7.8291C219.204 8.02198 222.229 11.1669 222.229 15.0176V330.543L542.86 9.91113L543.119 9.66504C544.439 8.46945 546.161 7.80272 547.95 7.80273L817.298 7.80469ZM588.869 362.324C590.825 362.362 592.682 363.194 594.012 364.63L835.498 625.439C837.442 627.539 837.957 630.59 836.812 633.211C835.666 635.832 833.077 637.526 830.217 637.526L560.869 637.529C558.898 637.529 557.014 636.721 555.655 635.293L442.073 515.924C439.381 513.095 439.437 508.635 442.198 505.874L583.641 364.431L583.906 364.179C585.261 362.955 587.035 362.289 588.869 362.324ZM1209.75 466.586C1213.72 466.586 1216.95 469.808 1216.95 473.783V630.329C1216.95 634.304 1213.72 637.526 1209.75 637.526H929.271C927.354 637.526 925.515 636.762 924.164 635.401L768.705 478.855C766.657 476.793 766.051 473.701 767.168 471.018C768.285 468.334 770.906 466.586 773.812 466.586H1209.75ZM1208.66 236.116C1212.64 236.116 1215.86 239.339 1215.86 243.313V399.859C1215.86 403.834 1212.64 407.057 1208.66 407.057H721.631C719.722 407.057 717.891 406.298 716.541 404.948L638.269 326.676C636.919 325.326 636.16 323.495 636.16 321.586C636.16 319.677 636.919 317.847 638.269 316.497L716.541 238.225L716.8 237.978C718.12 236.782 719.841 236.116 721.631 236.116H1208.66ZM1208.66 7.82031L1209.03 7.8291C1212.84 8.02186 1215.86 11.1668 1215.86 15.0176V171.563C1215.86 175.538 1212.64 178.761 1208.66 178.761H789.032C786.126 178.761 783.505 177.012 782.388 174.329C781.271 171.646 781.877 168.554 783.925 166.491L939.384 9.94629L939.643 9.69727C940.965 8.49214 942.694 7.82031 944.491 7.82031H1208.66Z" fill="#EF8A76" stroke="#EF8A76" stroke-width="14.3946" stroke-linejoin="round"/>
</svg>
