<svg width="501" height="501" viewBox="0 0 501 501" fill="none" xmlns="http://www.w3.org/2000/svg">
<path d="M0.5 218.159H500.5V282.841H0.5V218.159Z" fill="#EF8A76"/>
<path d="M96.5916 50.8546L450.145 404.408L404.408 450.145L50.8548 96.5915L96.5916 50.8546Z" fill="#EF8A76"/>
<path d="M282.841 0.500003L282.841 500.5H218.159L218.159 0.5L282.841 0.500003Z" fill="#EF8A76"/>
<path d="M450.145 96.5915L96.5917 450.145L50.8549 404.408L404.408 50.8546L450.145 96.5915Z" fill="#EF8A76"/>
<path d="M341.362 249.473C341.362 299.655 300.682 340.336 250.5 340.336C200.318 340.336 159.638 299.655 159.638 249.473C159.638 199.291 200.318 158.611 250.5 158.611C300.682 158.611 341.362 199.291 341.362 249.473Z" fill="#EF8A76"/>
</svg>
