<svg width="434" height="434" viewBox="0 0 434 434" fill="none" xmlns="http://www.w3.org/2000/svg">
<path d="M289.601 106.541C290.188 106.541 290.718 106.893 290.946 107.435C291.174 107.976 291.055 108.601 290.645 109.021L77.7939 326.657C77.5213 326.936 77.1478 327.094 76.7578 327.096C76.5498 327.097 76.3468 327.052 76.1602 326.97H6C5.19396 326.97 4.5403 326.317 4.54004 325.511V108.006C4.54018 107.2 5.19389 106.546 6 106.546H76.708C77.5141 106.546 78.1678 107.2 78.168 108.006V222.158L193.358 106.968L193.465 106.871C193.725 106.658 194.052 106.54 194.391 106.54L289.601 106.541ZM208.834 231.858C209.231 231.866 209.607 232.035 209.877 232.326L295.238 324.519C295.632 324.944 295.737 325.563 295.505 326.095C295.273 326.626 294.747 326.97 294.167 326.97L198.957 326.971C198.557 326.971 198.175 326.807 197.899 326.518L157.75 284.322C157.204 283.748 157.215 282.844 157.775 282.284L207.773 232.285L207.883 232.187C208.15 231.969 208.487 231.852 208.834 231.858ZM428.327 268.714C429.133 268.714 429.786 269.368 429.786 270.174V325.51C429.786 326.316 429.133 326.97 428.327 326.97H329.182C328.793 326.97 328.42 326.815 328.146 326.539L273.193 271.202C272.778 270.784 272.655 270.156 272.882 269.612C273.108 269.068 273.64 268.714 274.229 268.714H428.327ZM427.942 187.246C428.748 187.246 429.402 187.899 429.402 188.705V244.042C429.402 244.848 428.749 245.502 427.942 245.502H255.784C255.397 245.502 255.026 245.348 254.752 245.074L227.083 217.406C226.809 217.133 226.655 216.761 226.655 216.374C226.655 215.987 226.809 215.616 227.083 215.342L254.752 187.674L254.858 187.576C255.118 187.363 255.445 187.246 255.784 187.246H427.942ZM427.942 106.546C428.748 106.546 429.402 107.2 429.402 108.006V163.343C429.402 164.149 428.749 164.803 427.942 164.803H279.609C279.02 164.803 278.488 164.448 278.262 163.904C278.035 163.36 278.158 162.733 278.573 162.314L333.526 106.978L333.633 106.88C333.893 106.665 334.221 106.546 334.562 106.546H427.942Z" fill="#EF8A76" stroke="#EF8A76" stroke-width="2.91951" stroke-linejoin="round"/>
</svg>
